<?xml version="1.0" encoding="UTF-8"?>
<!DOCTYPE svg PUBLIC "-//W3C//DTD SVG 1.1//EN" "http://www.w3.org/Graphics/SVG/1.1/DTD/svg11.dtd">
<svg xmlns="http://www.w3.org/2000/svg" version="1.1" width="391px" height="391px" style="shape-rendering:geometricPrecision; text-rendering:geometricPrecision; image-rendering:optimizeQuality; fill-rule:evenodd; clip-rule:evenodd" xmlns:xlink="http://www.w3.org/1999/xlink">
<g><path style="opacity:0.956" fill="#fcfcfc" d="M 247.5,8.5 C 258.413,17.9094 268.913,27.9094 279,38.5C 279.667,39.1667 279.667,39.8333 279,40.5C 227.5,92 176,143.5 124.5,195C 176,246.5 227.5,298 279,349.5C 279.667,350.167 279.667,350.833 279,351.5C 268.986,361.681 258.819,371.681 248.5,381.5C 185.974,319.807 123.974,257.641 62.5,195C 123.995,132.672 185.661,70.5051 247.5,8.5 Z"/></g>
<g><path style="opacity:0.953" fill="#fcfcfc" d="M 267.5,109.5 C 268.552,109.351 269.552,109.517 270.5,110C 280.543,119.708 290.209,129.708 299.5,140C 281.875,158.626 263.875,176.959 245.5,195C 263.875,213.041 281.875,231.374 299.5,250C 290,260.833 279.833,271 269,280.5C 239.833,252.667 211.333,224.167 183.5,195C 211.328,166.339 239.328,137.839 267.5,109.5 Z"/></g>
</svg>
