<?xml version="1.0" encoding="UTF-8"?>
<!DOCTYPE svg PUBLIC "-//W3C//DTD SVG 1.1//EN" "http://www.w3.org/Graphics/SVG/1.1/DTD/svg11.dtd">
<svg xmlns="http://www.w3.org/2000/svg" version="1.1" width="391px" height="391px" style="shape-rendering:geometricPrecision; text-rendering:geometricPrecision; image-rendering:optimizeQuality; fill-rule:evenodd; clip-rule:evenodd" xmlns:xlink="http://www.w3.org/1999/xlink">
<g><path style="opacity:0.956" fill="#fcfcfc" d="M 144.5,8.5 C 207.623,69.7895 269.956,131.956 331.5,195C 270.026,257.641 208.026,319.807 145.5,381.5C 135.181,371.681 125.014,361.681 115,351.5C 114.333,350.833 114.333,350.167 115,349.5C 166.5,298 218,246.5 269.5,195C 218,143.5 166.5,92 115,40.5C 114.333,39.8333 114.333,39.1667 115,38.5C 125.036,28.6317 134.869,18.6317 144.5,8.5 Z"/></g>
<g><path style="opacity:0.953" fill="#fcfcfc" d="M 123.5,109.5 C 124.552,109.351 125.552,109.517 126.5,110C 154.874,138.04 182.874,166.373 210.5,195C 182.667,224.167 154.167,252.667 125,280.5C 114.167,271 104,260.833 94.5,250C 112.125,231.374 130.125,213.041 148.5,195C 130.125,176.959 112.125,158.626 94.5,140C 103.993,129.674 113.66,119.507 123.5,109.5 Z"/></g>
</svg>
